<svg xmlns="http://www.w3.org/2000/svg" viewBox="0 0 640 440" role="img" aria-labelledby="title desc">
  <title id="title">Clubhouse Chaos</title>
  <desc id="desc">Hand-illustrated shuffled scorecard art for Clubhouse Chaos.</desc>
  <defs>
    <linearGradient id="paper" x1="0" y1="0" x2="1" y2="1">
      <stop offset="0" stop-color="#fffaf0"/>
      <stop offset="1" stop-color="#eadcbe"/>
    </linearGradient>
    <linearGradient id="green" x1="0" y1="0" x2="0" y2="1">
      <stop offset="0" stop-color="#1f6b4a"/>
      <stop offset="1" stop-color="#123c2f"/>
    </linearGradient>
    <linearGradient id="gold" x1="0" y1="0" x2="1" y2="1">
      <stop offset="0" stop-color="#d6b066"/>
      <stop offset="1" stop-color="#b58a3a"/>
    </linearGradient>
    <filter id="paperNoise" x="0" y="0" width="100%" height="100%">
      <feTurbulence type="fractalNoise" baseFrequency="0.9" numOctaves="3" stitchTiles="stitch"/>
      <feColorMatrix type="saturate" values="0"/>
      <feComponentTransfer><feFuncA type="table" tableValues="0 0.045"/></feComponentTransfer>
    </filter>
    <filter id="shadow" x="-20%" y="-20%" width="140%" height="140%">
      <feDropShadow dx="9" dy="10" stdDeviation="0" flood-color="#0f2f25" flood-opacity="0.28"/>
    </filter>
    <style>
      .display{font-family:Impact,'Arial Black',Arial,sans-serif;font-weight:900;letter-spacing:4px;paint-order:stroke;stroke:#fffaf0;stroke-width:8;stroke-linejoin:round;fill:#123c2f}
      .displayGold{font-family:Impact,'Arial Black',Arial,sans-serif;font-weight:900;letter-spacing:4px;paint-order:stroke;stroke:#fffaf0;stroke-width:8;stroke-linejoin:round;fill:#b58a3a}
      .sub{font-family:'Arial Black',Arial,sans-serif;font-size:19px;font-weight:900;letter-spacing:5px;fill:#123c2f}
      .micro{font-family:'Arial Black',Arial,sans-serif;font-size:13px;font-weight:900;letter-spacing:2px;fill:#123c2f}
      .line{stroke:#d8cab0;stroke-width:2.5;stroke-linecap:square}
      .ink{stroke:#123c2f;stroke-width:5;stroke-linejoin:round;stroke-linecap:round;fill:none}
      .thin{stroke:#123c2f;stroke-width:3;stroke-linejoin:round;stroke-linecap:round;fill:none}
      .goldLine{stroke:#b58a3a;stroke-width:6;stroke-linecap:square}
    </style>
  </defs>
  <rect width="640" height="440" fill="#123c2f"/>
  <path d="M42 46h520l34 34v290H78L42 334z" fill="url(#paper)" stroke="#d8cab0" stroke-width="8" filter="url(#shadow)"/>
  <path d="M42 46h520l34 34v290H78L42 334z" fill="#fbf7ed" filter="url(#paperNoise)" opacity="0.9"/>
  <path d="M42 46h520l34 34v290H78L42 334z" fill="none" stroke="#d8cab0" stroke-width="8"/>
  <g opacity="0.22">
    <path class="line" d="M86 118h468M86 165h468M86 212h468M86 259h468M86 306h468"/>
    <path class="line" d="M162 84v252M258 84v252M354 84v252M450 84v252"/>
  </g>
  
  <g transform="translate(320 148)">
    <g transform="rotate(-15)"><rect x="-170" y="-78" width="162" height="112" fill="#fffaf0" stroke="#123c2f" stroke-width="6"/><path d="M-150-42h120M-150-16h120M-150 10h120" class="thin" opacity="0.5"/><text x="-150" y="-55" class="micro">GROUP 4</text></g>
    <g transform="rotate(12)"><rect x="-50" y="-100" width="184" height="126" fill="#fbf7ed" stroke="#1f6b4a" stroke-width="6"/><path d="M-28-62h138M-28-32h138M-28-2h138" class="thin" opacity="0.5"/><text x="-28" y="-78" class="micro">GROUP 2</text></g>
    <g transform="rotate(-5)"><rect x="34" y="-34" width="178" height="118" fill="#fffaf0" stroke="#b58a3a" stroke-width="7"/><path d="M58 5h130M58 34h130M58 63h130" class="thin" opacity="0.5"/><text x="58" y="-10" class="micro">GROUP 1</text></g>
  </g>
  <path d="M194 74c102-50 250-12 270 76" fill="none" stroke="#1f6b4a" stroke-width="9" stroke-linecap="round" stroke-dasharray="34 18" opacity="0.88"/>
  <path d="M457 150l26-4-15 22z" fill="#1f6b4a" stroke="#123c2f" stroke-width="4"/>
  <circle cx="147" cy="235" r="16" fill="#fffaf0" stroke="#123c2f" stroke-width="5"/>
  <circle cx="493" cy="86" r="13" fill="#fffaf0" stroke="#123c2f" stroke-width="5"/>
  <path d="M108 324h424" class="goldLine"/>
  <text x="320" y="292" text-anchor="middle" class="display" font-size="58">CLUBHOUSE</text>
  <text x="320" y="358" text-anchor="middle" class="displayGold" font-size="84">CHAOS</text>

</svg>