<svg xmlns="http://www.w3.org/2000/svg" viewBox="0 0 640 440" role="img" aria-labelledby="title desc">
  <title id="title">Open Picks</title>
  <desc id="desc">Hand-illustrated clubhouse scorecard art for Open Picks.</desc>
  <defs>
    <linearGradient id="paper" x1="0" y1="0" x2="1" y2="1">
      <stop offset="0" stop-color="#fffaf0"/>
      <stop offset="1" stop-color="#eadcbe"/>
    </linearGradient>
    <linearGradient id="green" x1="0" y1="0" x2="0" y2="1">
      <stop offset="0" stop-color="#1f6b4a"/>
      <stop offset="1" stop-color="#123c2f"/>
    </linearGradient>
    <linearGradient id="gold" x1="0" y1="0" x2="1" y2="1">
      <stop offset="0" stop-color="#d6b066"/>
      <stop offset="1" stop-color="#b58a3a"/>
    </linearGradient>
    <filter id="paperNoise" x="0" y="0" width="100%" height="100%">
      <feTurbulence type="fractalNoise" baseFrequency="0.9" numOctaves="3" stitchTiles="stitch"/>
      <feColorMatrix type="saturate" values="0"/>
      <feComponentTransfer><feFuncA type="table" tableValues="0 0.045"/></feComponentTransfer>
    </filter>
    <filter id="shadow" x="-20%" y="-20%" width="140%" height="140%">
      <feDropShadow dx="9" dy="10" stdDeviation="0" flood-color="#0f2f25" flood-opacity="0.28"/>
    </filter>
    <style>
      .display{font-family:Impact,'Arial Black',Arial,sans-serif;font-weight:900;letter-spacing:4px;paint-order:stroke;stroke:#fffaf0;stroke-width:8;stroke-linejoin:round;fill:#123c2f}
      .displayGold{font-family:Impact,'Arial Black',Arial,sans-serif;font-weight:900;letter-spacing:4px;paint-order:stroke;stroke:#fffaf0;stroke-width:8;stroke-linejoin:round;fill:#b58a3a}
      .sub{font-family:'Arial Black',Arial,sans-serif;font-size:19px;font-weight:900;letter-spacing:5px;fill:#123c2f}
      .micro{font-family:'Arial Black',Arial,sans-serif;font-size:13px;font-weight:900;letter-spacing:2px;fill:#123c2f}
      .line{stroke:#d8cab0;stroke-width:2.5;stroke-linecap:square}
      .ink{stroke:#123c2f;stroke-width:5;stroke-linejoin:round;stroke-linecap:round;fill:none}
      .thin{stroke:#123c2f;stroke-width:3;stroke-linejoin:round;stroke-linecap:round;fill:none}
      .goldLine{stroke:#b58a3a;stroke-width:6;stroke-linecap:square}
    </style>
  </defs>
  <rect width="640" height="440" fill="#123c2f"/>
  <path d="M42 46h520l34 34v290H78L42 334z" fill="url(#paper)" stroke="#d8cab0" stroke-width="8" filter="url(#shadow)"/>
  <path d="M42 46h520l34 34v290H78L42 334z" fill="#fbf7ed" filter="url(#paperNoise)" opacity="0.9"/>
  <path d="M42 46h520l34 34v290H78L42 334z" fill="none" stroke="#d8cab0" stroke-width="8"/>
  <g opacity="0.22">
    <path class="line" d="M86 118h468M86 165h468M86 212h468M86 259h468M86 306h468"/>
    <path class="line" d="M162 84v252M258 84v252M354 84v252M450 84v252"/>
  </g>
  
  <g transform="translate(0 -16) rotate(-4 315 190)">
    <rect x="154" y="78" width="260" height="168" fill="#fffaf0" stroke="#123c2f" stroke-width="6"/>
    <path d="M154 116h260" class="goldLine"/>
    <path d="M180 142h206M180 169h206M180 196h206M180 223h206" class="thin" opacity="0.45"/>
    <path d="M228 130v102M300 130v102M370 130v102" class="thin" opacity="0.35"/>
    <text x="184" y="106" class="micro">FIELD</text>
    <text x="324" y="106" class="micro">PICKS</text>
  </g>
  <g transform="translate(0 -14) rotate(5 374 173)">
    <rect x="254" y="88" width="238" height="146" fill="#fbf7ed" stroke="#1f6b4a" stroke-width="6"/>
    <path d="M276 124h190M276 153h190M276 182h190M276 211h190" class="thin" opacity="0.5"/>
    <circle cx="452" cy="110" r="15" fill="#fffaf0" stroke="#123c2f" stroke-width="5"/>
  </g>
  <g transform="translate(112 76)">
    <path d="M48 7v120" class="ink"/>
    <path d="M49 13c38-18 70-8 92 12-25 20-56 25-92 7z" fill="url(#green)" stroke="#123c2f" stroke-width="5"/>
    <circle cx="39" cy="138" r="16" fill="#fffaf0" stroke="#123c2f" stroke-width="5"/>
  </g>
  <path d="M108 324h424" class="goldLine"/>
  <text x="320" y="318" text-anchor="middle" class="display" font-size="80">OPEN PICKS</text>

</svg>